[IMG]http://img823.imageshack.us/img823/4840/thebabymakers2012.jpg[/IMG]


[color=blue][size=4][b]The.Babymakers.2012.BDRip.XVID.AC3.HQ.Hive-CM8[/b][/size][/color]


[b]Thx Hive

CM8 Doing It Right The First Time :D


Source: Bluray

Video: 720x304 @bitrate 1700 2pass
Audio: English DTS to AC3 5.1 @448
Sample: yes included[/b]

 
http://www.imdb.com/title/tt0835418/


General
Complete name                  : The.Babymakers.2012.BDRip.XVID.AC3.HQ.Hive-CM8.avi
Format                         : AVI
Format/Info                    : Audio Video Interleave
File size                      : 1.44 GiB
Duration                       : 1h 35mn
Overall bit rate               : 2 157 Kbps
Writing application            : Nandub v1.0rc2
Writing library                : Nandub build 1853/release

Video
ID                             : 0
Format                         : MPEG-4 Visual
Format profile                 : Advanced Simple@L5
Format settings, BVOP          : 1
Format settings, QPel          : Yes
Format settings, GMC           : No warppoints
Format settings, Matrix        : Default (H.263)
Muxing mode                    : Packed bitstream
Codec ID                       : XVID
Codec ID/Hint                  : XviD
Duration                       : 1h 35mn
Bit rate                       : 1 699 Kbps
Width                          : 720 pixels
Height                         : 304 pixels
Display aspect ratio           : 2.40:1
Frame rate                     : 23.976 fps
Color space                    : YUV
Chroma subsampling             : 4:2:0
Bit depth                      : 8 bits
Scan type                      : Progressive
Compression mode               : Lossy
Bits/(Pixel*Frame)             : 0.324
Stream size                    : 1.13 GiB (79%)
Writing library                : XviD 1.2.1 (UTC 2008-12-04)

Audio
ID                             : 1
Format                         : AC-3
Format/Info                    : Audio Coding 3
Mode extension                 : CM (complete main)
Format settings, Endianness    : Big
Codec ID                       : 2000
Duration                       : 1h 35mn
Bit rate mode                  : Constant
Bit rate                       : 448 Kbps
Channel(s)                     : 6 channels
Channel positions              : Front: L C R, Side: L R, LFE
Sampling rate                  : 48.0 KHz
Bit depth                      : 16 bits
Compression mode               : Lossy
Stream size                    : 306 MiB (21%)
Alignment                      : Split accross interleaves
Interleave, duration           : 42 ms (1.00 video frame)
Interleave, preload duration   : 500 ms


After failing to get his wife pregnant, a guy (Schneider) recruits his pals to steal the deposit he left at a sperm bank years ago.


Olivia Munn	... 	Audrey
Noureen DeWulf	... 	Bride
Aisha Tyler	... 	Karen
Wood Harris	... 	Darrell
Paul Schneider	... 	Tommy

	

[img]http://img266.imageshack.us/img266/8572/babbabbabbab.png[/img]
[img]http://img39.imageshack.us/img39/7230/babbbababbabbab.png[/img]
[img]http://img401.imageshack.us/img401/3801/babr.png[/img]
[img]http://img38.imageshack.us/img38/3217/babbab.png[/img]
[img]http://img708.imageshack.us/img708/3773/babbabbab.png[/img]






Greetz

ViSiON,SPK,SceneLovers,PRESTiGE,SANTi,3LT0N,YanKeeS,COPYxRIGHT,THC,T0XiC
D2U,LKRG,ADTRG,Feel-Free,KoDeKinG,FLAWL3SS,WBZ,BHRG,26K,NOVA,MAGNET
Unevano,BigVik,Rapeseed,SAFC,goldadvance,KaN1vE,Pinnz,Wayne,HiGH
SeeN,jtr,Limey,ICONiK,4PlayHD,THEDEN-RG,eXceSs,AKS74u,TED
Mr Hive,and most P2P groups
Great Work Guys :D

LOOKING FOR ANYTHING YOU WANT TO LOOK AND SOUND BETTER

CM8@hushmail.com
